<svg xmlns="http://www.w3.org/2000/svg" version="1.1" x="0" y="0" viewBox="0 0 500 500" xml:space="preserve"><path d="M450 500h20v-11.7c0 0 0 0 0 0 8.5-3 15.3-9.8 18.3-18.3 0 0 0 0 0 0H500v-20h-11.7c0 0 0 0 0 0 -4.1-11.6-15.2-20-28.3-20 -16.5 0-30 13.5-30 30 0 13 8.4 24.2 20 28.3 0 0 0 0 0 0V500zM450 460c0-5.5 4.5-10 10-10 5.5 0 10 4.5 10 10 0 5.5-4.5 10-10 10C454.5 470 450 465.5 450 460zM500 90V70c-5.5 0-10-4.5-10-10 0-5.5 4.5-10 10-10V30c-13 0-24.2 8.4-28.3 20 0 0 0 0 0 0H470V0h-20v60c0 5.5 4.5 10 10 10h11.7c0 0 0 0 0 0C475.8 81.6 487 90 500 90zM200 470h-30v-73.8l80.2 40.1c-0.2 1.2-0.2 2.4-0.2 3.7 0 16.5 13.5 30 30 30 13 0 24.2-8.4 28.3-20 0 0 0 0 0 0H380c5.5 0 10-4.5 10-10V290h46.2l63.8 55.8v-26.6l-53.4-46.7c-1.8-1.6-4.2-2.5-6.6-2.5h-50v-20h90c5.5 0 10-4.5 10-10v-40c0-3.3-1.7-6.5-4.5-8.3L453 170h18.7c4.1 11.6 15.2 20 28.3 20v-20c-5.5 0-10-4.5-10-10 0-5.5 4.5-10 10-10v-20c-13 0-24.1 8.4-28.3 20H430V20c0-5.5-4.5-10-10-10h-40c-2.4 0-4.8 0.9-6.6 2.5l-22.1 19.7C347.8 30.8 344 30 340 30c-13 0-24.2 8.4-28.3 20 0 0 0 0 0 0H280c-2.4 0-4.7 0.9-6.5 2.4L155 154c0 0 0 0 0 0 -4.4-2.5-9.5-4-15-4 -13 0-24.2 8.4-28.3 20 0 0 0 0 0 0H60c-5.5 0-10 4.5-10 10v50H20c-5.5 0-10 4.5-10 10v60c0 2.7 1.1 5.2 2.9 7.1l40 40c1.9 1.9 4.4 2.9 7.1 2.9h31.7c0 0 0 0 0 0 3.9 10.9 13.8 18.9 25.7 19.9 0 0 0 0 0 0l22.7 11.4L118 396c0 0 0 0 0 0 -5-3.8-11.2-6-18-6 -5.3 0-10.3 1.4-14.7 3.9L0 319.2v26.6l72.1 63.1c-1.4 3.4-2.1 7.2-2.1 11.1 0 2.5 0.3 5 0.9 7.4 0 0 0 0 0 0L37 450H0v20h40c2 0 3.9-0.6 5.5-1.7L82 444c2.4 1.8 5.1 3.3 8 4.3 0 0 0 0 0 0V500h20v-51.7c0 0 0 0 0 0 11.6-4.1 20-15.2 20-28.3 0-2.5-0.3-5-0.9-7.4 0 0 0 0 0 0l20.9-13.9V480c0 5.5 4.5 10 10 10h11.7c0 0 0 0 0 0 -1.1 3.1-1.7 6.5-1.7 10h20c0-5.5 4.5-10 10-10 5.5 0 10 4.5 10 10h20C230 483.5 216.5 470 200 470zM100 430c-5.5 0-10-4.5-10-10 0-5.5 4.5-10 10-10s10 4.5 10 10C110 425.5 105.5 430 100 430zM280 450c-5.5 0-10-4.5-10-10 0-5.5 4.5-10 10-10 5.5 0 10 4.5 10 10C290 445.5 285.5 450 280 450zM370 270h-1.7c0 0 0 0 0 0 -4.1-11.6-15.2-20-28.3-20 -16.5 0-30 13.5-30 30 0 13 8.4 24.2 20 28.3 0 0 0 0 0 0V370h-60V250h70 30V270zM350 280c0 5.5-4.5 10-10 10 -5.5 0-10-4.5-10-10 0-5.5 4.5-10 10-10C345.5 270 350 274.5 350 280zM370 188.3V230H270v-24.6l53-35.4h28.7c0 0 0 0 0 0C354.7 178.5 361.5 185.3 370 188.3 370 188.3 370 188.3 370 188.3zM380 170c-5.5 0-10-4.5-10-10 0-5.5 4.5-10 10-10 5.5 0 10 4.5 10 10C390 165.5 385.5 170 380 170zM470 205.4V230h-80v-41.7c0 0 0 0 0 0 8.5-3 15.3-9.8 18.3-18.3 0 0 0 0 0 0h8.7L470 205.4zM383.8 30H410v120h-1.7c0 0 0 0 0 0 -3-8.5-9.8-15.3-18.3-18.3 0 0 0 0 0 0V60c0-5.5-4.5-10-10-10h-11.7c0 0 0 0 0 0 -0.5-1.5-1.2-3-2-4.4L383.8 30zM340 50c5.5 0 10 4.5 10 10 0 5.5-4.5 10-10 10 -5.5 0-10-4.5-10-10C330 54.5 334.5 50 340 50zM322.6 84.4c4.9 3.5 10.9 5.6 17.4 5.6 13 0 24.2-8.4 28.3-20 0 0 0 0 0 0h1.7v61.7c0 0 0 0 0 0 -8.5 3-15.3 9.8-18.3 18.3 0 0 0 0 0 0H320c-2 0-3.9 0.6-5.5 1.7l-60 40c-2.8 1.9-4.5 5-4.5 8.3v30h-21.7c0 0 0 0 0 0 -3-8.5-9.8-15.3-18.3-18.3 0 0 0 0 0 0v-27.2L322.6 84.4zM210 240c0 5.5-4.5 10-10 10 -5.5 0-10-4.5-10-10 0-5.5 4.5-10 10-10C205.5 230 210 234.5 210 240zM140 170c5.5 0 10 4.5 10 10 0 5.5-4.5 10-10 10 -5.5 0-10-4.5-10-10C130 174.5 134.5 170 140 170zM91.7 330C91.7 330 91.7 330 91.7 330l-27.6 0L30 295.9V250h30c5.5 0 10-4.5 10-10v-50h41.7c0 0 0 0 0 0 4.1 11.6 15.2 20 28.3 20 16.5 0 30-13.5 30-30 0-3.8-0.7-7.5-2-10.8 0 0 0 0 0 0L283.7 70h25L193.4 172.5c-2.1 1.9-3.4 4.6-3.4 7.5v31.7c0 0 0 0 0 0 -8.5 3-15.3 9.8-18.3 18.3 0 0 0 0 0 0H160c-2.7 0-5.2 1.1-7.1 2.9l-40 40c-1.9 1.9-2.9 4.4-2.9 7.1v31.7c0 0 0 0 0 0C101.5 314.7 94.7 321.5 91.7 330zM120 350c-5.5 0-10-4.5-10-10 0-5.5 4.5-10 10-10s10 4.5 10 10C130 345.5 125.5 350 120 350zM130 311.7C130 311.7 130 311.7 130 311.7l0-27.6 34.1-34.1h7.6c0 0 0 0 0 0 3 8.5 9.8 15.3 18.3 18.3 0 0 0 0 0 0V330h-41.7c0 0 0 0 0 0C145.3 321.5 138.5 314.7 130 311.7zM142.3 360C142.3 360 142.3 360 142.3 360c2.6-2.9 4.6-6.3 5.9-10 0 0 0 0 0 0H200c5.5 0 10-4.5 10-10v-71.7c0 0 0 0 0 0 8.5-3 15.3-9.8 18.3-18.3 0 0 0 0 0 0H250v130c0 5.5 4.5 10 10 10h80c5.5 0 10-4.5 10-10v-71.7c0 0 0 0 0 0 8.5-3 15.3-9.8 18.3-18.3 0 0 0 0 0 0h1.7v140h-61.7c0 0 0 0 0 0 -4.1-11.6-15.2-20-28.3-20 -8.1 0-15.4 3.2-20.8 8.4 0 0 0 0 0 0L142.3 360zM40 70c2 0 3.9-0.6 5.5-1.7l60-40c2.8-1.9 4.5-5 4.5-8.3V0H90v14.6L37 50h-8.7c0 0 0 0 0 0C24.2 38.4 13 30 0 30v20c5.5 0 10 4.5 10 10 0 5.5-4.5 10-10 10v20c13 0 24.2-8.4 28.3-20 0 0 0 0 0 0H40zM230 0h-20c0 5.5-4.5 10-10 10 -5.5 0-10-4.5-10-10h-20c0 13 8.4 24.2 20 28.3 0 0 0 0 0 0V75l-66.4 49.8 -14.6-29.3c-1.7-3.4-5.2-5.5-8.9-5.5H40c-5.5 0-10 4.5-10 10v50h-1.7C24.1 138.4 13 130 0 130v20c5.5 0 10 4.5 10 10 0 5.5-4.5 10-10 10v20c13 0 24.2-8.4 28.3-20H40c5.5 0 10-4.5 10-10v-50h43.8l17.2 34.5c1.3 2.7 3.8 4.6 6.6 5.3 2.9 0.7 5.9 0 8.3-1.7l80-60c2.5-1.9 4-4.9 4-8V28.3c0 0 0 0 0 0C221.6 24.2 230 13 230 0zM30 159.5c0-0.4 0-0.8 0-1.2 0 0.2 0.1 0.4 0.1 0.6C30 159.2 30 159.3 30 159.5z"/></svg>
