<svg
  class="busSVG"
  xmlns="http://www.w3.org/2000/svg"
  role="img"
  version="1.1" x="0" y="0" viewBox="0 0 300 300">
  <title>AM (morning bus)</title>
  <path class="busSVG__background" d="M285.9 12H15.3C7.4 12 0 18.1 0 26v205.9c0 7.9 7.4 15.1 15.3 15.1H19v27.2c0 7.9 7.5 14.8 15.4 14.8h12.1c7.9 0 14.4-6.9 14.4-14.8V247h179v27.2c0 7.9 6.8 14.8 14.7 14.8h12.1c7.9 0 15.2-6.9 15.2-14.8V247h3.9c7.9 0 14.1-7.2 14.1-15.1V26C300 18.1 293.8 12 285.9 12z"/>
  <path class="busSVG__foreground" d="M274.3 184.8H26.9c-4.4 0-8-3.6-8-8V38.3c0-4.4 3.6-8 8-8h247.4c4.4 0 8 3.6 8 8v138.5C282.3 181.2 278.7 184.8 274.3 184.8z"/>
  <circle class="busSVG__foreground" cx="34.6" cy="215.9" r="15.7"/>
  <circle class="busSVG__foreground" cx="267.2" cy="215.9" r="15.7"/>
  <g class="busSVG__text busSVG__text">
    <path d="M74.3 62.9h32.5l35.5 91H109l-4.8-13.4H75.3L70.8 154H38.4L74.3 62.9zM90.1 94.7l-7.5 22.5h14.8L90.1 94.7z"/>
    <path d="M175.9 102.6l1.4 51.4h-28.5v-91h40l16.5 49h0.6l14.3-49h41.3v91h-29.8l0.9-51.2 -0.8-0.1 -17 51.3h-21.6l-16.7-51.4H175.9z"/>
  </g>
</svg>
