<svg xmlns="http://www.w3.org/2000/svg" version="1.1" x="0" y="0" viewBox="0 0 400 400" xml:space="preserve"><path d="M380 338.5L220.6 39.9c-4-7.5-11.8-12.1-20.2-12.1h0c-8.5 0-16.2 4.7-20.2 12.1L20.1 338.5c-3.8 7.2-3.6 15.8 0.5 22.6 4.2 6.9 11.6 11.2 19.7 11.2h319.4c8.1 0 15.5-4.2 19.7-11.2C383.5 354.2 383.8 345.6 380 338.5zM200.4 326.3c-12.7 0-23-10.3-23-23 0-12.7 10.3-23 23-23 12.7 0 23 10.3 23 23C223.3 316 213 326.3 200.4 326.3zM223.3 234.8c0 12.7-10.3 23-23 23 -12.7 0-23-10.3-23-23v-91.9c0-12.7 10.3-23 23-23 12.7 0 23 10.3 23 23V234.8z"/></svg>
