<svg class="logoSVG" xmlns="http://www.w3.org/2000/svg" version="1.1" x="0" y="0" viewBox="0 0 203 81" xml:space="preserve">
  <path class="logoSVG__metro" d="M38.6 79.7l4.7-24.6h-0.4L30.4 79.7h-9.8l-3.8-24.6h-0.3l-3.7 24.6H0l7.5-42.4h17.7l3.7 23.2h0.3l11-23.2h19.3l-7.5 42.4H38.6zM153.6 57.7c1.7-2.3 2.5-5.2 2.5-8.7 0-1.9-0.4-3.5-1-5 -0.7-1.5-1.7-2.7-3-3.7 -1.3-1-2.9-1.8-4.8-2.3 -1.9-0.5-4-0.8-6.3-0.8H124h-0.5H89.8 89 62.1l-7.5 42.4h29.5l2-11.6H69.7l0.8-4.4h14l1.9-10.8h-14l0.7-4h24.5l-5.4 30.7h13.9l5.4-30.7h9.9L116 79.7h13.4l2.6-15.5h1.7l5.8 15.5h15.6l-8.3-17.3C149.7 61.5 151.9 60 153.6 57.7zM140.7 54.4c-1 0.6-2.5 0.9-4.3 0.9h-2.8l1.3-7.1h2.6c1.5 0 2.6 0.2 3.5 0.7 0.9 0.5 1.3 1.3 1.3 2.5C142.3 52.8 141.8 53.8 140.7 54.4zM177.2 80.8c-3.4 0-6.4-0.5-9-1.4 -2.6-0.9-4.8-2.3-6.6-4 -1.8-1.7-3.1-3.8-4-6.1 -0.9-2.4-1.4-5-1.4-7.8 0-3.5 0.6-6.8 1.9-9.9 1.2-3.1 3-5.7 5.2-8s4.9-4.1 8.1-5.4c3.2-1.3 6.7-2 10.6-2 3.4 0 6.5 0.5 9.1 1.4 2.6 0.9 4.8 2.3 6.6 4 1.8 1.7 3.1 3.8 4 6.1 0.9 2.4 1.4 5 1.4 7.8 0 3.5-0.6 6.8-1.8 9.9 -1.2 3.1-3 5.7-5.2 8 -2.3 2.3-5 4.1-8.1 5.4C184.6 80.1 181.1 80.8 177.2 80.8zM188.6 56.5c0-1.1-0.2-2.1-0.5-3 -0.3-0.9-0.8-1.8-1.5-2.5 -0.7-0.7-1.5-1.2-2.5-1.6 -1-0.4-2.1-0.6-3.3-0.6 -1.6 0-3 0.3-4.2 1 -1.3 0.7-2.3 1.5-3.2 2.6 -0.9 1.1-1.6 2.3-2 3.7 -0.5 1.4-0.7 2.8-0.7 4.3 0 1.1 0.2 2.1 0.5 3 0.3 0.9 0.8 1.8 1.5 2.5 0.7 0.7 1.5 1.2 2.5 1.6 1 0.4 2.1 0.6 3.4 0.6 1.6 0 3-0.3 4.2-1 1.2-0.6 2.3-1.5 3.2-2.6 0.9-1.1 1.6-2.3 2-3.7C188.3 59.4 188.6 58 188.6 56.5z"/>
  <path class="logoSVG__minimal" d="M56.2 18.2c0.6-1.9 1.5-3.3 2.8-4.3 1.3-1 2.8-1.5 4.5-1.5 1.3 0 2.3 0.2 3.2 0.7s1.6 1.1 2.1 1.9c0.5 0.8 0.9 1.6 1.1 2.6 0.2 1 0.3 2 0.3 2.9V32h-0.9V20.6c0-0.8-0.1-1.6-0.3-2.5 -0.2-0.9-0.5-1.7-0.9-2.4 -0.4-0.7-1-1.3-1.8-1.8 -0.7-0.5-1.7-0.7-2.8-0.7 -1 0-1.9 0.2-2.8 0.6 -0.9 0.4-1.6 1-2.3 1.8 -0.7 0.8-1.2 1.8-1.6 2.9 -0.4 1.1-0.6 2.5-0.6 3.9V32h-0.9V20.6c0-0.8-0.1-1.6-0.2-2.5 -0.2-0.9-0.4-1.7-0.9-2.4 -0.4-0.7-1-1.3-1.7-1.8 -0.7-0.5-1.7-0.7-2.8-0.7 -1 0-1.9 0.2-2.8 0.6 -0.9 0.4-1.6 1-2.3 1.8 -0.7 0.8-1.2 1.8-1.5 2.9 -0.4 1.1-0.6 2.5-0.6 3.9V32h-0.9V17.7c0-0.3 0-0.7 0-1.1 0-0.4 0-0.9 0-1.4 0-0.5 0-0.9-0.1-1.3 0-0.4-0.1-0.8-0.1-1h0.9c0 0.3 0 0.6 0.1 1 0 0.4 0 0.9 0 1.4 0 0.5 0 1 0 1.4 0 0.5 0 0.9 0 1.2h0.1c0.3-0.9 0.7-1.7 1.2-2.4 0.5-0.7 1.1-1.3 1.7-1.8 0.6-0.5 1.3-0.9 2-1.1 0.7-0.2 1.5-0.4 2.3-0.4 1 0 1.9 0.2 2.6 0.5 0.7 0.3 1.4 0.7 1.8 1.2 0.5 0.5 0.9 1.1 1.2 1.8C55.8 16.6 56 17.4 56.2 18.2L56.2 18.2zM75.9 5.7c-0.2 0-0.5-0.1-0.7-0.3C75 5.3 74.9 5 74.9 4.7c0-0.3 0.1-0.6 0.3-0.7 0.2-0.2 0.4-0.3 0.7-0.3 0.2 0 0.5 0.1 0.7 0.3 0.2 0.2 0.3 0.4 0.3 0.7 0 0.3-0.1 0.6-0.3 0.8C76.3 5.6 76.1 5.7 75.9 5.7zM75.4 32V12.9h0.9V32H75.4zM84 15.6c0.5-0.7 1.1-1.3 1.8-1.8 0.7-0.5 1.4-0.9 2.2-1.1 0.8-0.2 1.6-0.4 2.4-0.4 1.3 0 2.4 0.2 3.3 0.7 0.9 0.5 1.6 1.1 2.1 1.9 0.5 0.8 0.9 1.6 1.1 2.6 0.2 1 0.3 2 0.3 2.9V32h-0.9V20.6c0-0.8-0.1-1.6-0.2-2.5 -0.2-0.9-0.5-1.7-0.9-2.4 -0.5-0.7-1.1-1.3-1.8-1.8 -0.8-0.5-1.8-0.7-2.9-0.7 -1.1 0-2 0.2-3 0.6 -0.9 0.4-1.7 1-2.4 1.8 -0.7 0.8-1.2 1.8-1.6 2.9 -0.4 1.1-0.6 2.5-0.6 3.9V32h-0.9V17.7c0-0.3 0-0.7 0-1.1 0-0.4 0-0.9 0-1.4 0-0.5 0-0.9-0.1-1.3 0-0.4-0.1-0.8-0.1-1h0.9c0 0.3 0 0.6 0.1 1 0 0.4 0 0.9 0 1.4 0 0.5 0 1 0 1.4 0 0.5 0 0.9 0 1.2h0.1C83 17.1 83.4 16.3 84 15.6zM102.8 5.7c-0.2 0-0.5-0.1-0.7-0.3 -0.2-0.2-0.3-0.5-0.3-0.8 0-0.3 0.1-0.6 0.3-0.7 0.2-0.2 0.4-0.3 0.7-0.3 0.2 0 0.5 0.1 0.7 0.3 0.2 0.2 0.3 0.4 0.3 0.7 0 0.3-0.1 0.6-0.3 0.8C103.2 5.6 103 5.7 102.8 5.7zM102.3 32V12.9h0.9V32H102.3zM123.2 18.2c0.6-1.9 1.5-3.3 2.8-4.3 1.3-1 2.8-1.5 4.5-1.5 1.3 0 2.3 0.2 3.2 0.7 0.9 0.5 1.6 1.1 2.1 1.9 0.5 0.8 0.9 1.6 1.1 2.6 0.2 1 0.3 2 0.3 2.9V32h-0.9V20.6c0-0.8-0.1-1.6-0.3-2.5 -0.2-0.9-0.5-1.7-0.9-2.4 -0.4-0.7-1-1.3-1.8-1.8 -0.7-0.5-1.7-0.7-2.8-0.7 -1 0-1.9 0.2-2.8 0.6 -0.9 0.4-1.6 1-2.3 1.8 -0.7 0.8-1.2 1.8-1.6 2.9 -0.4 1.1-0.6 2.5-0.6 3.9V32h-0.9V20.6c0-0.8-0.1-1.6-0.2-2.5 -0.2-0.9-0.4-1.7-0.9-2.4 -0.4-0.7-1-1.3-1.7-1.8 -0.7-0.5-1.7-0.7-2.8-0.7 -1 0-1.9 0.2-2.8 0.6 -0.9 0.4-1.6 1-2.3 1.8 -0.7 0.8-1.2 1.8-1.5 2.9 -0.4 1.1-0.6 2.5-0.6 3.9V32h-0.9V17.7c0-0.3 0-0.7 0-1.1 0-0.4 0-0.9 0-1.4 0-0.5 0-0.9-0.1-1.3 0-0.4-0.1-0.8-0.1-1h0.9c0 0.3 0 0.6 0.1 1 0 0.4 0 0.9 0 1.4 0 0.5 0 1 0 1.4 0 0.5 0 0.9 0 1.2h0.1c0.3-0.9 0.7-1.7 1.2-2.4 0.5-0.7 1.1-1.3 1.7-1.8 0.6-0.5 1.3-0.9 2-1.1 0.7-0.2 1.5-0.4 2.3-0.4 1 0 1.9 0.2 2.6 0.5 0.7 0.3 1.4 0.7 1.8 1.2 0.5 0.5 0.9 1.1 1.2 1.8C122.8 16.6 123 17.4 123.2 18.2L123.2 18.2zM155.5 27.7c0 0.7 0 1.5 0.1 2.3 0.1 0.8 0.1 1.5 0.2 2H155c-0.1-0.3-0.1-0.6-0.1-1 0-0.4-0.1-0.8-0.1-1.2 0-0.4-0.1-0.9-0.1-1.3 0-0.4 0-0.8 0-1h-0.1c-0.6 1.7-1.5 3-2.9 3.9 -1.4 0.8-2.8 1.3-4.4 1.3 -0.8 0-1.5-0.1-2.3-0.3 -0.8-0.2-1.4-0.6-2.1-1 -0.6-0.4-1.1-1-1.5-1.7 -0.4-0.7-0.6-1.5-0.6-2.5 0-1.4 0.4-2.5 1.1-3.3 0.7-0.8 1.6-1.5 2.6-1.9s2.2-0.8 3.4-0.9c1.2-0.1 2.3-0.2 3.3-0.2h3.3v-1.5c0-2.1-0.6-3.7-1.7-4.7 -1.1-1-2.6-1.5-4.4-1.5 -1.1 0-2.2 0.2-3.2 0.6 -1 0.4-1.9 1-2.6 1.7l-0.5-0.7c0.9-0.8 1.9-1.4 3-1.8 1.1-0.4 2.2-0.6 3.3-0.6 2.2 0 3.9 0.6 5.2 1.7 1.3 1.1 1.9 2.9 1.9 5.3V27.7zM154.6 21.6h-2.9c-1.1 0-2.2 0.1-3.3 0.2 -1.2 0.1-2.2 0.4-3.2 0.8 -1 0.4-1.8 0.9-2.4 1.7 -0.6 0.7-0.9 1.7-0.9 2.9 0 0.9 0.2 1.6 0.5 2.2 0.3 0.6 0.8 1.1 1.3 1.4 0.5 0.4 1.1 0.6 1.8 0.8 0.6 0.2 1.3 0.2 1.8 0.2 1.4 0 2.6-0.3 3.5-0.8 0.9-0.5 1.7-1.2 2.3-2 0.6-0.8 1-1.7 1.2-2.7 0.2-1 0.3-1.9 0.3-2.9V21.6zM160.6 32V0.6h0.9V32H160.6z"/>
</svg>
