<svg xmlns="http://www.w3.org/2000/svg" viewBox="0 0 359 510"><path d="M195 469c0 8.5-7 15.5-15.5 15.5s-15.5-7-15.5-15.5 7-15.5 15.5-15.5 15.5 7 15.5 15.5zm163.5 29c0 6.6-5.4 12-12 12h-335c-6.6 0-12-5.4-12-12V12c0-6.6 5.4-12 12-12h335c6.6 0 12 5.4 12 12v486zM204 469c0-13.5-11-24.5-24.5-24.5S155 455.5 155 469s11 24.5 24.5 24.5 24.5-11 24.5-24.5zM338.5 20h-319v406h319V20zm-223 46c0-6.6-5.4-12-12-12h-46c-6.6 0-12 5.4-12 12v46c0 6.6 5.4 12 12 12h46c6.6 0 12-5.4 12-12V66zm99 0c0-6.6-5.4-12-12-12h-46c-6.6 0-12 5.4-12 12v46c0 6.6 5.4 12 12 12h46c6.6 0 12-5.4 12-12V66zm98 0c0-6.6-5.4-12-12-12h-46c-6.6 0-12 5.4-12 12v46c0 6.6 5.4 12 12 12h46c6.6 0 12-5.4 12-12V66zm-197 104c0-6.6-5.4-12-12-12h-46c-6.6 0-12 5.4-12 12v46c0 6.6 5.4 12 12 12h46c6.6 0 12-5.4 12-12v-46zm99 0c0-6.6-5.4-12-12-12h-46c-6.6 0-12 5.4-12 12v46c0 6.6 5.4 12 12 12h46c6.6 0 12-5.4 12-12v-46zm98 0c0-6.6-5.4-12-12-12h-46c-6.6 0-12 5.4-12 12v46c0 6.6 5.4 12 12 12h46c6.6 0 12-5.4 12-12v-46z"/></svg>
