<svg
  version="1.1" x="0" y="0"
  viewBox="0 0 245 320"
  class="sampleScreenSVG"
>
  <rect class="sampleScreenSVG__segment--accent" width="245" height="320"/>
  <path class="sampleScreenSVG__segment--dark" d="M182.7 170.8H62.8c-3.5 0-6.8 2.7-6.8 6.2v91.2c0 3.5 3.3 6.7 6.8 6.7h1.6V287c0 3.5 3.3 6.6 6.8 6.6h5.4c3.5 0 6.4-3.1 6.4-6.6v-12.1h79.3V287c0 3.5 3 6.6 6.5 6.6h5.4c3.5 0 6.7-3.1 6.7-6.6v-12.1h1.7c3.5 0 6.2-3.2 6.2-6.7V177C189 173.5 186.2 170.8 182.7 170.8z"/>
  <path class="sampleScreenSVG__segment--light" d="M177.6 247.4H68c-1.9 0-3.5-1.6-3.5-3.5v-61.4c0-1.9 1.6-3.5 3.5-3.5h109.6c1.9 0 3.5 1.6 3.5 3.5v61.4C181.2 245.8 179.6 247.4 177.6 247.4z"/>
  <circle class="sampleScreenSVG__segment--light" cx="71.4" cy="261.1" r="7"/>
  <circle class="sampleScreenSVG__segment--light" cx="174.5" cy="261.1" r="7"/>
  <circle class="sampleScreenSVG__segment--accent" cx="122.5" cy="212.8" r="30.2"/>
  <path class="sampleScreenSVG__segment--dark" d="M110 215.2c-0.9 0-1.8-0.2-2.7-0.5 -0.9-0.3-1.7-0.8-2.3-1.4 -0.7-0.6-1.2-1.3-1.6-2.2 -0.4-0.9-0.6-1.9-0.6-3 0-1.3 0.3-2.5 0.8-3.5 0.5-1 1.2-1.9 2-2.5 0.9-0.7 1.9-1.2 3-1.5 1.1-0.3 2.3-0.5 3.6-0.5 1.2 0 2.4 0.2 3.6 0.5s2.1 0.8 3 1.5c0.9 0.7 1.5 1.5 2 2.5 0.5 1 0.8 2.2 0.8 3.6 0 1.3-0.3 2.6-0.8 3.8 -0.5 1.2-1.1 2.3-1.9 3.2l-4.9 6.8h-8.7l5-6.5 0.2-0.2H110zM112.1 210.2c0.6 0 1.2-0.2 1.6-0.6 0.4-0.4 0.6-0.9 0.6-1.5 0-0.6-0.2-1.1-0.6-1.6 -0.4-0.4-0.9-0.6-1.6-0.6 -0.7 0-1.2 0.2-1.6 0.6 -0.4 0.4-0.6 0.9-0.6 1.6 0 0.6 0.2 1.1 0.6 1.5C110.9 210 111.4 210.2 112.1 210.2z"/>
  <path class="sampleScreenSVG__segment--dark" d="M127.5 200.6h7.6l8.3 21.3h-7.8l-1.1-3.1h-6.8l-1.1 3.1h-7.6L127.5 200.6zM131.2 208l-1.7 5.3h3.5L131.2 208z"/>
  <path class="sampleScreenSVG__segment--dark" d="M89 59.6c1.2-0.9 2.1-1.9 2.9-3 0.8-1.1 1.1-2.3 1.1-3.4 0-1.4-0.4-2.6-1.3-3.6 -0.9-1-2.2-1.6-4.1-1.6 -2 0-3.7 0.8-5 2.4 -1.3 1.6-2 3.7-2.2 6.4l-23.6-2.7c0.5-4.8 1.7-8.9 3.7-12.4 2-3.5 4.5-6.3 7.5-8.6s6.4-4 10.1-5c3.7-1.1 7.5-1.6 11.5-1.6 3.6 0 7.2 0.5 10.8 1.4 3.6 0.9 6.7 2.3 9.5 4.2 2.8 1.9 5 4.4 6.8 7.4 1.7 3.1 2.6 6.7 2.6 11 0 3.1-0.4 5.7-1.2 8.1 -0.8 2.3-1.9 4.4-3.2 6.2 -1.4 1.8-2.9 3.4-4.6 4.9 -1.7 1.5-3.5 2.8-5.4 4.2l-10.8 7.7h25.4v20.7H59.9V82.9L89 59.6z"/>
  <path class="sampleScreenSVG__segment--dark" d="M154 59.6c1.2-0.9 2.1-1.9 2.9-3 0.8-1.1 1.1-2.3 1.1-3.4 0-1.4-0.4-2.6-1.3-3.6 -0.9-1-2.2-1.6-4.1-1.6 -2 0-3.7 0.8-5 2.4 -1.3 1.6-2 3.7-2.2 6.4l-23.6-2.7c0.5-4.8 1.7-8.9 3.7-12.4 2-3.5 4.5-6.3 7.5-8.6s6.4-4 10.1-5c3.7-1.1 7.5-1.6 11.5-1.6 3.6 0 7.2 0.5 10.8 1.4 3.6 0.9 6.7 2.3 9.5 4.2 2.8 1.9 5 4.4 6.8 7.4 1.7 3.1 2.6 6.7 2.6 11 0 3.1-0.4 5.7-1.2 8.1 -0.8 2.3-1.9 4.4-3.2 6.2 -1.4 1.8-2.9 3.4-4.6 4.9 -1.7 1.5-3.5 2.8-5.4 4.2l-10.8 7.7h25.4v20.7h-59.7V82.9L154 59.6z"/>
  <path class="sampleScreenSVG__segment--dark" d="M82.1 143.2h0.1L94 112.4h8.7v40.1h-5.6V119H97l-13.3 33.5h-3.6L66.9 119h-0.1v33.5h-5.4v-40.1h8.7L82.1 143.2z"/>
  <path class="sampleScreenSVG__segment--dark" d="M113.8 152.5h-5.6v-40.1h5.6V152.5z"/>
  <path class="sampleScreenSVG__segment--dark" d="M147.6 144.5h0.1v-32h5.6v40.1h-7.1L125 119.8h-0.1v32.7h-5.6v-40.1h7.3L147.6 144.5z"/>
  <path class="sampleScreenSVG__segment--dark" d="M178.7 119.9c-0.8-1.1-1.9-2-3.2-2.7 -1.4-0.7-2.9-1-4.6-1 -0.9 0-1.8 0.1-2.7 0.4 -0.9 0.2-1.8 0.6-2.5 1.2 -0.8 0.5-1.4 1.2-1.8 2 -0.5 0.8-0.7 1.8-0.7 2.9 0 1.1 0.2 2 0.7 2.7 0.4 0.7 1 1.4 1.8 1.9 0.7 0.5 1.6 0.9 2.6 1.3 1 0.4 2.1 0.7 3.2 1.1 1.4 0.4 2.7 0.9 4.1 1.4 1.4 0.5 2.7 1.2 3.8 2.1 1.1 0.9 2.1 2 2.8 3.3 0.7 1.3 1.1 3 1.1 5 0 2.1-0.4 3.9-1.2 5.4 -0.8 1.5-1.8 2.8-3.1 3.8 -1.3 1-2.8 1.7-4.4 2.2 -1.7 0.5-3.4 0.7-5.2 0.7 -2.5 0-5-0.5-7.3-1.5 -2.4-1-4.3-2.4-5.9-4.4l4.4-3.7c0.9 1.4 2.2 2.5 3.8 3.4 1.6 0.9 3.3 1.3 5.2 1.3 0.9 0 1.9-0.1 2.8-0.4 0.9-0.3 1.8-0.7 2.6-1.2 0.8-0.6 1.4-1.3 1.9-2.1 0.5-0.8 0.7-1.9 0.7-3.1s-0.3-2.2-0.8-3c-0.5-0.8-1.2-1.5-2.1-2.1 -0.9-0.6-1.9-1-3-1.4 -1.2-0.4-2.4-0.8-3.7-1.2 -1.3-0.4-2.5-0.8-3.8-1.4 -1.2-0.5-2.4-1.2-3.3-2.1 -1-0.8-1.8-1.9-2.4-3.1 -0.6-1.2-0.9-2.8-0.9-4.6 0-2 0.4-3.7 1.2-5.2 0.8-1.4 1.9-2.6 3.2-3.6 1.3-0.9 2.8-1.6 4.4-2.1 1.6-0.4 3.3-0.7 5-0.7 2.3 0 4.5 0.4 6.6 1.2 2 0.8 3.7 1.9 4.9 3.3L178.7 119.9z"/>
</svg>
