<svg version="1.1" x="0" y="0" viewBox="0 0 268 74" class="onboardingSMTT__SVG" role="img">
  <title>Southern Maine Transit Tracker</title>
  <g>
    <path d="M268 22.7c-4.9 0-9.7 0-14.8 0 0 0.8-0.1 1.6-0.1 2.4 0 11.3 0 22.6 0 33.9 0 1.9-0.5 2.5-2.4 2.3 -2.1-0.2-4.2-0.1-6.2 0 -1.5 0.1-2-0.4-2-1.9 0.1-10.3 0-20.6 0-31 0-1.8 0-3.6 0-5.6 -5 0-9.8 0-14.7 0 0-3.3 0-6.4 0-9.8 0.8 0 1.5 0 2.2 0 11.9 0 23.8 0 35.7 0 0.7 0 1.5 0 2.2-0.1C268 16.1 268 19.4 268 22.7z"/>
    <path d="M121.3 61c0-16 0-32 0-48.1 3.6 0 7.1-0.1 10.6 0.1 0.5 0 1.1 0.8 1.5 1.3 3.6 5.7 7.1 11.3 10.6 17 0.4 0.6 0.7 1.1 1.3 1.9 0.5-0.7 0.8-1.1 1.2-1.7 3.6-5.8 7.2-11.5 10.8-17.3 0.6-1 1.3-1.4 2.5-1.4 3.2 0.1 6.3 0 9.6 0 0 16.1 0 32.1 0 48.3 -3.1 0-6.2 0-9.3 0 -1.3 0-0.9-1.1-0.9-1.8 0-8.7 0-17.5 0-26.2 0-1 0-1.9 0-2.9 -0.1-0.1-0.3-0.1-0.4-0.2 -4.4 6.6-8.8 13.3-13.3 20.2 -4.5-6.8-8.9-13.4-13.2-20 -0.1 0-0.3 0.1-0.4 0.1 0 10.1 0 20.3 0 30.6C128 61 124.7 61 121.3 61z"/>
    <path d="M107.7 18.1c-2 2.9-3.7 5.4-5.5 8 -1.3-0.8-2.6-1.5-3.8-2.2 -3.2-1.7-6.6-2.8-10.3-2.4 -3.6 0.4-5.7 2.9-4.5 5.7 0.4 1.1 1.5 2.1 2.6 2.6 2.3 1 4.7 1.6 7.1 2.3 2.5 0.8 5.1 1.5 7.6 2.6 5.5 2.3 8.5 6.3 8.3 12.4 -0.2 6.1-2.9 10.6-8.6 13 -7 2.9-14 2.1-20.8-0.6 -3.1-1.2-5.8-3.2-9-5 2.4-2.8 4.4-5.3 6.4-7.7 1.9 1.2 3.7 2.4 5.6 3.5 3.8 2 7.9 2.9 12.2 1.9 2.7-0.6 4-2.3 3.8-4.8 -0.1-1.8-1.1-2.8-2.6-3.4 -2.4-0.9-4.8-1.7-7.2-2.5 -2.5-0.8-5.1-1.4-7.5-2.4 -5.5-2.1-8.5-6-8.5-12.1 0-6.1 2.6-10.6 8.2-13.1 6.7-3 13.5-2.2 20.1 0.4C103.3 15.4 105.3 16.8 107.7 18.1z"/>
    <path d="M219.4 13c0 3.2 0 6.3 0 9.5 -4.9 0-9.6 0-14.6 0 0 12.9 0 25.6 0 38.4 -3.6 0-7 0-10.6 0 0-12.7 0-25.4 0-38.4 -5 0-9.8 0-14.7 0 0-3.3 0-6.4 0-9.6C192.8 13 206 13 219.4 13z"/>
  </g>
  <g>
    <path d="M46.1 10.2c-0.7 2.6-3 4.6-5.9 4.6 -1.6 0-3.1-0.6-4.2-1.7 0 0-0.1 0-0.1 0 -5.1 2.2-10.1 4.5-15.2 6.7 -0.8 0.3-1.1 0.7-0.9 1.6 0.2 0.9 0.2 2 0 3 -0.2 0.8 0 1.3 0.6 1.9 3.5 3 6.9 6.1 10.4 9.1 0.2 0.1 0.3 0.2 0.4 0.3 1.6-0.8 3.3-1.2 5.2-1.2 4.3 0 8.1 2.4 10.1 5.9C53.1 29.4 53 18.5 46.1 10.2z"/>
    <path d="M24.8 46.4c0-0.1 0-0.2 0-0.3 0-2.3 0.7-4.5 1.9-6.3 0 0-0.1-0.1-0.1-0.1 -3.4-2.9-6.7-5.9-10.1-8.9 -0.6-0.5-1.1-0.6-1.8-0.3 -3.4 1.1-7-0.3-8.8-3.4 -1.9-3.3-1.3-7.6 1.4-10.1 2.6-2.4 6.4-2.7 9.4-0.6 0.6 0.4 1.1 0.4 1.7 0.1 4.6-2.1 9.3-4.1 13.9-6.2 0.7-0.3 1.3-0.5 1.8-0.9 0-0.2 0-0.5 0-0.7 0-2.6 1.6-4.8 3.9-5.6 -0.2-0.1-0.5-0.3-0.7-0.4C29.1-1.5 17.2-1.1 9 6.2 1.5 13-1.8 21.4 1 31.3c2.1 7.4 5.9 14.1 9.9 20.8 4.5-1.8 8.8-3.7 13.2-5.3C24.3 46.6 24.6 46.5 24.8 46.4z"/><path d="M36.5 57.7c-3.1 0-6-1.2-8.1-3.3 -2.1 0.8-4.2 1.7-6.4 2.6 -2.1 0.8-4.1 1.7-6.3 2.6 3.4 4.8 6.6 9.4 10.1 14.4 3.9-5.5 7.6-10.8 11.4-16.3C37 57.7 36.8 57.7 36.5 57.7z"/>
  </g>
</svg>
