<svg xmlns="http://www.w3.org/2000/svg" version="1.1" x="0" y="0" viewBox="0 0 400 400">
  <path d="M200 141.2c32.4 0 58.8 26.4 58.8 58.8s-26.4 58.8-58.8 58.8 -58.8-26.4-58.8-58.8S167.6 141.2 200 141.2M200 113.2c-47.9 0-86.8 38.9-86.8 86.8 0 47.9 38.9 86.8 86.8 86.8 47.9 0 86.8-38.9 86.8-86.8C286.8 152.1 247.9 113.2 200 113.2L200 113.2zM214 25h-28v65.9h28V25zM132.8 113L86.2 66.4 66.4 86.2l46.6 46.6L132.8 113zM90.9 186H25v28h65.9V186zM132.8 287L113 267.2l-46.6 46.6 19.8 19.8L132.8 287zM214 309.1h-28V375h28V309.1zM333.6 313.8L287 267.2 267.2 287l46.6 46.6L333.6 313.8zM375 186h-65.9v28H375V186zM333.6 86.2l-19.8-19.8L267.2 113l19.8 19.8L333.6 86.2z"/>
</svg>
