<svg class="iconSVG iconSVG--touchIcon" xmlns="http://www.w3.org/2000/svg" version="1.1" x="0" y="0" viewBox="0 0 300 300" xml:space="preserve">
	<path class="shape--background" d="M286 11.5H15.3C7.4 11.5 0 17.6 0 25.5v205.8c0 7.9 7.4 15.1 15.3 15.1H19v27.2c0 7.9 7.5 14.8 15.4 14.8h12.1c7.9 0 14.4-6.9 14.4-14.8v-27.2H240v27.2c0 7.9 6.8 14.8 14.6 14.8h12.1c7.9 0 15.2-6.9 15.2-14.8v-27.2h3.9c7.9 0 14.1-7.3 14.1-15.1V25.5C300 17.6 293.9 11.5 286 11.5z"/>
	<ellipse class="shape--lights" cx="33.9" cy="215.4" rx="15.2" ry="15.1"/>
	<ellipse class="shape--lights" cx="267.3" cy="215.4" rx="15.2" ry="15.1"/>
	<path class="shape--window" d="M281 181.7c0 2.2-1.7 3.8-3.8 3.8H21.1c-2.2 0-3.8-1.7-3.8-3.8V86.4c0-2 1.7-3.8 3.8-3.8h256.2c2.2 0 3.8 1.8 3.8 3.8v95.3L281 181.7 281 181.7zM281 61c0 2.2-1.7 3.8-3.8 3.8H21.1c-2.2 0-3.8-1.7-3.8-3.8V34.3c0-2 1.7-3.8 3.8-3.8h256.2c2.2 0 3.8 1.8 3.8 3.8V61H281z"/>
</svg>
